<svg width="14" height="14" viewBox="0 0 14 14" fill="none" xmlns="http://www.w3.org/2000/svg">
<path d="M9.07113 7.58105L7.89861 8.75755C7.42312 9.2347 6.58652 9.24498 6.10075 8.75755L4.92817 7.58105L0.716797 11.8061C0.873559 11.8786 1.0464 11.9218 1.23015 11.9218H12.7692C12.953 11.9218 13.1257 11.8786 13.2825 11.8061L9.07113 7.58105Z" fill="white"/>
<path d="M12.7692 2.07812H1.23009C1.04634 2.07812 0.873504 2.12138 0.716797 2.19387L5.21695 6.70895C5.21725 6.70925 5.21761 6.70931 5.21791 6.70961C5.21821 6.70991 5.21826 6.71032 5.21826 6.71032L6.68151 8.17841C6.83693 8.33383 7.16237 8.33383 7.3178 8.17841L8.78074 6.71057C8.78074 6.71057 8.7811 6.70991 8.7814 6.70961C8.7814 6.70961 8.78205 6.70925 8.78236 6.70895L13.2824 2.19384C13.1257 2.12133 12.9529 2.07812 12.7692 2.07812Z" fill="white"/>
<path d="M0.130867 2.76758C0.0497656 2.93159 0 3.11364 0 3.30866V10.6915C0 10.8865 0.0497109 11.0685 0.13084 11.2325L4.34952 7.0002L0.130867 2.76758Z" fill="white"/>
<path d="M13.869 2.76758L9.65039 7.00025L13.869 11.2327C13.9501 11.0686 13.9999 10.8866 13.9999 10.6915V3.30871C13.9999 3.11364 13.9501 2.93159 13.869 2.76758Z" fill="white"/>
</svg>
