<svg width="14" height="14" viewBox="0 0 14 14" fill="none" xmlns="http://www.w3.org/2000/svg">
<g clip-path="url(#clip0_507_2135)">
<path d="M12.063 9.74408C11.2173 9.02072 10.359 8.58256 9.52363 9.30482L9.02482 9.74135C8.65987 10.0582 7.98131 11.5388 5.35778 8.52082C2.73479 5.50666 4.29569 5.03735 4.66119 4.7232L5.16273 4.28613C5.99372 3.56223 5.68012 2.65093 5.08078 1.71286L4.7191 1.14466C4.11704 0.208782 3.46143 -0.405852 2.62826 0.316958L2.17807 0.710323C1.80984 0.978577 0.780529 1.85054 0.530851 3.50705C0.230363 5.49464 1.17827 7.77069 3.34997 10.268C5.51895 12.7664 7.64258 14.0214 9.65421 13.9995C11.326 13.9815 12.3357 13.0844 12.6514 12.7582L13.1033 12.3643C13.9342 11.6421 13.418 10.9067 12.5717 10.1817L12.063 9.74408Z" fill="white"/>
</g>
<defs>
<clipPath id="clip0_507_2135">
<rect width="14" height="14" fill="white"/>
</clipPath>
</defs>
</svg>
